<?xml version="1.0" encoding="UTF-8"?>
<svg viewBox="0 0 1284 2778" version="1.1" xmlns="http://www.w3.org/2000/svg" xmlns:xlink="http://www.w3.org/1999/xlink">
    <defs>
        <linearGradient x1="75.3200448%" y1="0.72950414%" x2="15.74669%" y2="100%" id="linearGradient-1">
            <stop stop-color="#C4C9D2" offset="0%"></stop>
            <stop stop-color="#9199A6" offset="100%"></stop>
        </linearGradient>
    </defs>
    <g stroke="none" stroke-width="1" fill="none" fill-rule="evenodd">
        <path d="M1284,0 L1284,2778 L0,2778 L0,0 L1284,0 Z M235,1634 C245.196254,2015.3478 423.994416,2319 642.5,2319 C861.005584,2319 1039.80375,2015.3478 1050,1634 L1049.9999,1270 C1050,872.631123 867.556036,550 642.5,550 C417.443964,550 235.000096,872.631123 235.000096,1270 L235,1634 Z" id="Shape" fill="url(#linearGradient-1)"></path>
        <g id="asset-2" transform="translate(61.000000, 1055.000000)" stroke="#FFFFFF" stroke-width="3">
            <path d="M33.2560815,1.07053747 C33.4002412,-0.356845823 34.5997588,-0.356845823 34.7439185,1.07053747 L36.3334154,16.8082938 C36.4602352,18.0634167 37.4608532,18.2791772 37.7661726,17.1180145 L41.595245,2.55012088 C41.9427244,1.22829783 43.1045021,1.73811901 43.0365022,3.18232234 L42.2861237,19.1016191 C42.2262838,20.370662 43.164002,21.0051835 43.628781,20.0099012 L49.4573896,7.52769237 C49.9860885,6.39494976 51.0373665,7.38269203 50.761287,8.7526552 L47.718293,23.85299 C47.4755335,25.0564928 48.2915319,26.0697552 48.8865307,25.3029934 L56.348156,15.6906312 C57.0250947,14.8183092 57.899573,16.2219124 57.4327539,17.4317952 L52.288224,30.763126 C51.8781848,31.8256884 52.5211235,33.1538915 53.2089422,32.6649504 L61.8347252,26.5256362 C62.6174037,25.9688349 63.2603424,27.6995589 62.6320236,28.6728012 L55.7092973,39.3993459 C55.1574784,40.2542679 55.5868975,41.8144715 56.3243561,41.6323511 L65.5723379,39.3529458 C66.4114562,39.1458853 66.7823955,41.0958498 66.0323569,41.7715514 L57.7662932,49.2187686 C57.1073745,49.8121099 57.2964141,51.5051338 58.0369327,51.6431742 L67.3263944,53.3657781 C68.1692527,53.5223785 68.2443926,55.5680432 67.4198942,55.903864 L58.3300121,59.6031125 C57.6051335,59.8983332 57.5418937,61.6186172 58.2392323,62.0663782 L66.9860551,67.6836912 C67.7796135,68.1935123 67.5548739,70.207277 66.7072556,70.1823369 L57.364754,69.9016163 C56.6198155,69.8789962 56.3083761,71.51866 56.9186749,72.2488817 L64.5734198,81.4076828 C65.2676985,82.2388248 64.7570195,84.093669 63.9396611,83.7085481 L54.9317188,79.4658384 C54.2133002,79.1276976 53.6730413,80.5829209 54.1578803,81.5497832 L60.2394483,93.6747111 C60.7912673,94.7749737 60.0266088,96.3543173 59.2908502,95.6339557 L51.1832262,87.6960573 C50.5365474,87.0632759 49.8014689,88.2435786 50.1305882,89.3856012 L54.2568201,103.714534 C54.6311594,105.014897 53.6608013,106.21956 53.0532225,105.209778 L46.3548957,94.0743321 C45.8210967,93.18635 44.9370985,94.0169119 45.0897582,95.2633348 L47.0015744,110.895531 C47.1749741,112.314214 46.0594363,113.068796 45.6181171,111.832233 L40.7506867,98.1993016 C40.3624075,97.1123791 39.3855894,97.5410001 39.3519295,98.812943 L38.9289703,114.76762 C38.8908904,116.214723 37.7005527,116.471664 37.4530332,115.086041 L34.7221586,99.8128653 C34.504219,98.5954425 33.495781,98.5954425 33.2778414,99.8128653 L30.5469668,115.086041 C30.2994473,116.471664 29.1091096,116.214723 29.0710297,114.76762 L28.6480705,98.812943 C28.6140706,97.5410001 27.6375925,97.1123791 27.2493133,98.1993016 L22.3822229,111.832233 C21.9409037,113.068796 20.8253659,112.314214 20.9987656,110.895531 L22.9105818,95.2633348 C23.0632415,94.0169119 22.1795833,93.18635 21.6454443,94.0743321 L14.9474575,105.209778 C14.3395387,106.21956 13.3691806,105.014897 13.7435199,103.714534 L17.8697518,89.3856012 C18.1988711,88.2435786 17.4634526,87.0632759 16.8171138,87.6960573 L8.70948978,95.6345357 C7.97373123,96.3548973 7.20907274,94.7755537 7.76089165,93.6752911 L13.8424597,81.5503632 C14.3272987,80.5835009 13.7870398,79.1282776 13.0686212,79.4664184 L4.06067893,83.7091281 C3.24332054,84.094249 2.73264155,82.2394048 3.42692018,81.4082628 L11.0816651,72.2494617 C11.6919639,71.51924 11.3805245,69.8795762 10.635586,69.9021963 L1.29308438,70.1829169 C0.445466051,70.207857 0.220726493,68.1940923 1.01428493,67.6842712 L9.76110771,62.0669582 C10.4584463,61.6191972 10.3952065,59.8989132 9.67032789,59.6036925 L0.580105786,55.904444 C-0.244392591,55.5686232 -0.169252739,53.5229585 0.673605602,53.3663581 L9.96306732,51.6437542 C10.7035859,51.5057138 10.8926255,49.8126899 10.2337068,49.2193486 L1.96764305,41.7715514 C1.21760453,41.0958498 1.5885438,39.1458853 2.42766215,39.3529458 L11.6756439,41.6323511 C12.4134425,41.8144715 12.8425216,40.2542679 12.2907027,39.3993459 L5.36797636,28.6733812 C4.7396576,27.7001389 5.38259633,25.9694149 6.16527479,26.5262162 L14.7910578,32.6649504 C15.4788765,33.1544715 16.1218152,31.8262684 15.711776,30.763706 L10.5672461,17.4317952 C10.100427,16.2219124 10.9749053,14.8183092 11.651844,15.6906312 L19.1134693,25.3035734 C19.7084681,26.0697552 20.5244665,25.0564928 20.281707,23.85241 L17.238713,8.7526552 C16.9626335,7.38269203 18.0139115,6.39494976 18.5426104,7.52769237 L24.371219,20.0099012 C24.835998,21.0051835 25.7737162,20.370662 25.7142163,19.1016191 L24.9631578,3.18232234 C24.8951579,1.73811901 26.0569356,1.22829783 26.404415,2.55012088 L30.2338274,17.1180145 C30.5388068,18.2791772 31.5394248,18.0634167 31.6662446,16.8082938 L33.2557415,1.07053747 L33.2560815,1.07053747 Z" id="Path"></path>
        </g>
        <path d="M199.503109,1644.55733 C210.708591,2041.91341 406.436645,2355.49689 642.5,2355.49689 C878.563355,2355.49689 1074.29141,2041.91341 1085.49689,1644.55733 L1085.49678,1263.96778 C1085.49689,850.946508 886.340808,516.503109 642.5,516.503109 C398.659229,516.503109 199.503215,850.946448 199.503215,1263.96778 L199.503109,1644.55734 Z M199.503109,1644.55734 L199.503109,1644.63482 L199.500932,1644.48003 C199.501657,1644.5058 199.502383,1644.53156 199.503109,1644.55733 Z" id="Path" stroke="#FFFFFF" stroke-width="11.0062182"></path>
        <path d="M266.923634,989.854842 C265.643487,995.208189 264.398983,1000.5946 263.190646,1006.01314 C160.323676,1067.21866 70.9573158,1149.78873 -4.95151595,1253.74756 L-14.8751461,1246.75244 C64.469368,1138.08836 158.418082,1052.44696 266.923634,989.854842 Z M1005.74721,943.077841 C1112.42818,1001.08945 1211.16106,1092.41339 1301.87934,1216.96922 L1291.94718,1223.95265 C1205.22931,1104.88937 1111.37142,1016.72775 1010.31306,959.394725 C1008.82901,953.917084 1007.30685,948.477765 1005.74721,943.077838 Z" id="Combined-Shape" fill="#FFFFFF" fill-rule="nonzero"></path>
        <ellipse id="Oval" stroke="#FFFFFF" stroke-width="5" cx="173.5" cy="1031" rx="44.5" ry="67"></ellipse>
        <g id="asset" transform="translate(935.000000, 418.000000)" stroke="#FFFFFF" stroke-width="5">
            <polygon id="Path" points="167.14308 0 144.85692 0 144.85692 102.46986 107.89272 7.46172 87.23052 16.13034 125.151 113.60088 53.5704 39.26718 37.8144 55.6308 106.42164 126.8784 17.511 86.53716 8.5878 107.74296 102.66672 150.42996 0 150.42996 0 173.57166 102.6636 173.57166 8.5878 216.25542 17.511 237.46284 106.42008 197.12322 37.81128 268.3692 53.5704 284.73282 125.151 210.39912 87.23052 307.86966 107.89272 316.53828 144.85692 221.53014 144.85692 324 167.14308 324 167.14308 221.53014 204.10728 316.53828 224.76948 307.86966 186.849 210.39912 258.4296 284.73282 274.18716 268.3692 205.57992 197.12322 294.49056 237.46284 303.4122 216.25542 209.3364 173.57166 312 173.57166 312 150.42834 209.33484 150.42834 303.4122 107.74458 294.49056 86.53878 205.57992 126.87678 274.18716 55.6308 258.4296 39.26556 186.849 113.60088 224.76948 16.13034 204.10728 7.46172 167.14308 102.46986"></polygon>
        </g>
        <g id="asset-3" transform="translate(919.000000, 2240.000000)" stroke="#FFFFFF" stroke-width="5">
            <path d="M86.062,55.85076 L110.52122,31.39154 C112.207361,29.7414511 114.907535,29.7560402 116.575747,31.4242528 C118.24396,33.0924654 118.258549,35.7926385 116.60846,37.47878 L92.14924,61.938 C97.66964,60.69702 104.11504,59.9844 111,59.9844 C131.43436,59.9844 148,66.2596 148,74 C148,81.7404 131.43436,88.01486 111,88.01486 C104.11504,88.01486 97.66964,87.30298 92.14924,86.062 L116.60846,110.52122 C118.228422,112.212246 118.19971,114.88796 116.543835,116.543835 C114.88796,118.19971 112.212246,118.228422 110.52122,116.60846 L86.062,92.14924 C87.30298,97.66964 88.01486,104.11578 88.01486,111 C88.01486,131.43436 81.7404,148 74,148 C66.2596,148 59.9844,131.43436 59.9844,111 C59.9844,104.11504 60.69702,97.66964 61.938,92.14924 L37.47878,116.60846 C35.7926385,118.258549 33.0924654,118.24396 31.4242528,116.575747 C29.7560402,114.907535 29.7414511,112.207361 31.39154,110.52122 L55.85076,86.062 C50.33036,87.30298 43.88496,88.01486 37,88.01486 C16.56564,88.01486 0,81.7404 0,74 C0,66.2596 16.56564,59.9844 37,59.9844 C43.88422,59.9844 50.33036,60.69702 55.85076,61.938 L31.39154,37.47878 C29.7105952,35.7978351 29.7105953,33.072485 31.3915401,31.3915401 C33.072485,29.7105953 35.7978351,29.7105952 37.47878,31.39154 L61.938,55.85076 C60.69702,50.33036 59.9844,43.88496 59.9844,37 C59.9844,16.56564 66.2596,0 74,0 C81.7404,0 88.01486,16.56564 88.01486,37 C88.01486,43.88422 87.30298,50.32962 86.062,55.85076 Z" id="Path"></path>
        </g>
    </g>
</svg>